<?xml version="1.0" encoding="UTF-8" standalone="no"?>
<!-- Created with Inkscape (http://www.inkscape.org/) -->

<svg
   width="32mm"
   height="32mm"
   viewBox="0 0 32 32"
   version="1.1"
   id="svg1"
   inkscape:export-filename="bitmap.png"
   inkscape:export-xdpi="25.4"
   inkscape:export-ydpi="25.4"
   xmlns:inkscape="http://www.inkscape.org/namespaces/inkscape"
   xmlns:sodipodi="http://sodipodi.sourceforge.net/DTD/sodipodi-0.dtd"
   xmlns="http://www.w3.org/2000/svg"
   xmlns:svg="http://www.w3.org/2000/svg">
  <sodipodi:namedview
     id="namedview1"
     pagecolor="#000000"
     bordercolor="#000000"
     borderopacity="0.25"
     inkscape:showpageshadow="2"
     inkscape:pageopacity="0.0"
     inkscape:pagecheckerboard="0"
     inkscape:deskcolor="#d1d1d1"
     inkscape:document-units="mm" />
  <defs
     id="defs1" />
  <g
     inkscape:groupmode="layer"
     id="layer2"
     inkscape:label="Layer 2">
    <g
       id="g23">
      <g
         id="use22"
         transform="matrix(-1.3803666,0,0,1.3953841,38.808332,-3.9095238)">
        <path
           fill-rule="evenodd"
           clip-rule="evenodd"
           d="m 8.24033,7.99013 7.61797,2.10837 c 0.1525,0.041 0.3485,-0.0264 0.4398,-0.15253 l 2.7844,-3.83076 c 0.0903,-0.131 0.058,-0.31 -0.0728,-0.40069 L 15.0663,3.06218 C 14.9371,2.97564 14.7301,2.98004 14.6027,3.07158 L 8.19546,7.73747 C 8.06874,7.83217 8.08979,7.94606 8.24033,7.99013"
           fill="#d24708"
           id="path11" />
        <path
           fill-rule="evenodd"
           clip-rule="evenodd"
           d="m 14.6027,3.07158 c 0.1274,-0.09154 0.3344,-0.09594 0.4636,-0.0094 v 0 l 3.9434,2.65234 c 0.1308,0.09069 0.1631,0.26969 0.0728,0.40069 v 0 l -2.7844,3.83076 c -0.0913,0.12613 -0.2873,0.19353 -0.4398,0.15253 v 0 L 8.24033,7.99013 C 8.08979,7.94606 8.06874,7.83217 8.19546,7.73747 v 0 z"
           fill="#ff850f"
           id="path12" />
        <path
           fill-rule="evenodd"
           clip-rule="evenodd"
           d="m 20.665,4.50068 0.3554,7.91952 c 0.0051,0.1572 0.1315,0.3221 0.2786,0.3718 l 4.4948,1.4719 c 0.1515,0.045 0.3105,-0.0419 0.3569,-0.1913 L 27.4468,9.48898 C 27.4882,9.33949 27.4204,9.14131 27.2937,9.04977 L 20.8906,4.37932 C 20.7617,4.28771 20.6604,4.34211 20.665,4.50068"
           fill="#d24708"
           id="path13" />
        <path
           fill-rule="evenodd"
           clip-rule="evenodd"
           d="m 20.665,4.50068 0.3554,7.91952 c 0.0051,0.1572 0.1315,0.3221 0.2786,0.3718 l 4.4948,1.4719 c 0.1515,0.045 0.3105,-0.0419 0.3569,-0.1913 L 27.4468,9.48898 C 27.4882,9.33949 27.4204,9.14131 27.2937,9.04977 L 20.8906,4.37932 C 20.7617,4.28771 20.6604,4.34211 20.665,4.50068 Z"
           fill="#ff850f"
           id="path14" />
        <path
           fill-rule="evenodd"
           clip-rule="evenodd"
           d="m 27.8094,15.2723 -7.4,2.7869 c -0.1459,0.0542 -0.2648,0.2256 -0.2648,0.3814 l -0.0059,4.7414 c 0.0035,0.1582 0.1333,0.285 0.2917,0.2806 l 4.7448,-0.18 c 0.1556,-0.0059 0.3209,-0.1318 0.3692,-0.2803 l 2.45,-7.5509 c 0.0464,-0.1523 -0.0376,-0.2328 -0.185,-0.1791"
           fill="#d24708"
           id="path15" />
        <path
           fill-rule="evenodd"
           clip-rule="evenodd"
           d="m 27.8094,15.2723 -7.4,2.7869 c -0.1459,0.0542 -0.2648,0.2256 -0.2648,0.3814 l -0.0059,4.7414 c 0.0035,0.1582 0.1333,0.285 0.2917,0.2806 l 4.7448,-0.18 c 0.1556,-0.0059 0.3209,-0.1318 0.3692,-0.2803 l 2.45,-7.5509 c 0.0464,-0.1523 -0.0376,-0.2328 -0.185,-0.1791 z"
           fill="#ff850f"
           id="path16"
           style="stroke:none" />
        <path
           fill-rule="evenodd"
           clip-rule="evenodd"
           d="M 19.8041,25.4233 14.8767,19.225 C 14.7804,19.1026 14.58,19.0406 14.4325,19.0888 l -4.4976,1.458 c -0.14992,0.0528 -0.2286,0.2155 -0.17623,0.3669 l 1.63513,4.4712 c 0.0552,0.1454 0.2258,0.2646 0.3817,0.2646 l 7.9172,0.0048 c 0.1575,-0.0026 0.2086,-0.1051 0.1114,-0.231"
           fill="#d24708"
           id="path17" />
        <path
           fill-rule="evenodd"
           clip-rule="evenodd"
           d="M 19.8041,25.4233 14.8767,19.225 C 14.7804,19.1026 14.58,19.0406 14.4325,19.0888 l -4.4976,1.458 c -0.14992,0.0528 -0.2286,0.2155 -0.17623,0.3669 l 1.63513,4.4712 c 0.0552,0.1454 0.2258,0.2646 0.3817,0.2646 l 7.9172,0.0048 c 0.1575,-0.0026 0.2086,-0.1051 0.1114,-0.231 z"
           fill="#ff850f"
           id="path18" />
        <path
           fill-rule="evenodd"
           clip-rule="evenodd"
           d="M 7.45985,20.8869 5.01705,13.3314 C 4.96808,13.1817 5.02835,12.9819 5.14972,12.8866 L 8.88428,9.94259 C 9.0103,9.84667 9.18938,9.87209 9.28539,9.99676 L 12.0582,13.838 c 0.091,0.1255 0.095,0.3348 0.0078,0.4647 l -4.35334,6.6169 c -0.08904,0.1318 -0.2023,0.1161 -0.25281,-0.0327"
           fill="#d24708"
           id="path19" />
        <path
           fill-rule="evenodd"
           clip-rule="evenodd"
           d="M 9.28539,9.99676 12.0582,13.838 c 0.091,0.1255 0.095,0.3348 0.0078,0.4647 L 7.71266,20.9196 C 7.62362,21.0514 7.51036,21.0357 7.45985,20.8869 L 5.01705,13.3314 C 4.96808,13.1817 5.02835,12.9819 5.14972,12.8866 L 8.88428,9.94259 C 9.0103,9.84667 9.18938,9.87209 9.28539,9.99676 Z"
           fill="#ff850f"
           id="path20" />
      </g>
      <path
         style="color:#000000;fill:#ff850f;stroke:#000000;stroke-width:1.00013;stroke-linejoin:round;stroke-dasharray:none"
         d="m 18.726065,5.2646315 c -0.554577,-0.00684 -0.783054,0.1317838 -0.943359,0.203125 -0.320612,0.1426823 -0.466476,0.2115945 -0.171875,0.09375 -0.03173,0.012692 -0.511073,0.064062 -1.19336,0.5683594 -0.877848,0.6488448 -1.368759,1.2470773 -1.710937,1.4980468 -1.722443,1.2633205 -2.52563,3.1912223 -3.107422,5.2597663 C 11.463032,11.04587 11.299834,9.2819754 11.093253,7.4013502 L 7.1479407,7.834944 c 0.4977322,4.531137 0.6038106,9.221929 1.296875,14.015625 0.171172,1.183941 0.3743329,2.40163 0.6816406,3.63086 0.2004092,0.801638 0.4575987,1.285621 0.6152344,1.671875 0.011949,0.07032 0.023437,0.140625 0.023437,0.140625 0,0 0.024734,-0.0057 0.025391,-0.0059 0.00731,0.01927 0.026746,0.07155 0.033203,0.08984 -0.024572,-0.06965 -0.00217,-0.04093 -0.017578,-0.09375 0.078544,-0.01886 1.8886713,-0.453125 1.8886713,-0.453125 0,0 1.945299,0.394599 1.945313,0.394531 2.7e-5,-1.34e-4 0.01539,-0.08693 0.01758,-0.101562 0.0044,-0.02927 0.0045,-0.03766 0.0059,-0.04883 1.68e-4,-0.0013 -1.64e-4,-0.0026 0,-0.0039 0.0055,-0.04438 -0.0012,-0.06336 0.0039,-0.107422 -1.73e-4,0.02439 2.57e-4,0.06922 0,0.07422 0.0032,-0.02858 0.007,-0.05472 0.0098,-0.0918 0.0039,-0.05207 0.0075,-0.114897 0.0059,-0.222657 -6.5e-5,-0.0044 -0.004,-0.02294 -0.0039,-0.02734 0.173295,-1.884371 -0.01382,-3.535262 0.185547,-4.681641 0.499324,-2.871159 0.842235,-5.486575 1.339844,-7.474609 0.497491,-1.987996 1.150343,-3.200064 1.849491,-3.712852 0.332692,-0.244012 0.413479,-0.351393 0.648437,-0.566407 0.404727,0.989184 0.835886,1.98811 1.109375,2.876954 0.30881,1.003631 0.353501,2.38626 0.708985,4.021484 0.196404,0.903414 1.109076,5.339406 2.183594,7.615235 l 3.58789,-1.69336 C 25.114478,22.704049 23.317935,15.949364 23.39794,16.317366 23.15133,15.182961 23.129695,13.67506 22.604971,11.96971 22.115274,10.378191 21.457774,8.9583882 20.948721,7.6493971 20.971937,7.7090943 20.968543,7.2417729 20.552237,6.4091627 20.249993,5.8046754 19.280642,5.2714711 18.726065,5.2646315 Z M 13.620596,26.368148 c 1.4e-5,-4e-6 0.0039,0 0.0039,0 0,0 0.04492,0.263672 0.04492,0.263671 0,-5e-6 10e-7,0.01283 0,0.01367 0.0025,-0.04622 -0.03907,-0.192408 -0.04883,-0.277343 z"
         id="path21" />
    </g>
  </g>
</svg>
