<?xml version="1.0" encoding="UTF-8" standalone="no"?>
<!-- Created with Inkscape (http://www.inkscape.org/) -->

<svg
   width="32mm"
   height="32mm"
   viewBox="0 0 32 32"
   version="1.1"
   id="svg1"
   inkscape:export-filename="bitmap.png"
   inkscape:export-xdpi="25.4"
   inkscape:export-ydpi="25.4"
   sodipodi:docname="favicon.svg"
   inkscape:version="1.2.2 (732a01da63, 2022-12-09)"
   xmlns:inkscape="http://www.inkscape.org/namespaces/inkscape"
   xmlns:sodipodi="http://sodipodi.sourceforge.net/DTD/sodipodi-0.dtd"
   xmlns="http://www.w3.org/2000/svg"
   xmlns:svg="http://www.w3.org/2000/svg">
  <sodipodi:namedview
     id="namedview1"
     pagecolor="#000000"
     bordercolor="#000000"
     borderopacity="0.25"
     inkscape:showpageshadow="2"
     inkscape:pageopacity="0"
     inkscape:pagecheckerboard="true"
     inkscape:deskcolor="#d1d1d1"
     inkscape:document-units="mm"
     showgrid="false"
     inkscape:zoom="4.0100911"
     inkscape:cx="60.472441"
     inkscape:cy="60.472441"
     inkscape:window-width="1280"
     inkscape:window-height="730"
     inkscape:window-x="-6"
     inkscape:window-y="-6"
     inkscape:window-maximized="1"
     inkscape:current-layer="layer2" />
  <defs
     id="defs1" />
  <g
     inkscape:groupmode="layer"
     id="layer2"
     inkscape:label="Layer 2">
    <path
       id="path11"
       style="stroke-width:1.38786;fill:#ff850f;fill-opacity:1"
       d="M 18.332214 0.27698568 C 18.216505 0.27457864 18.100475 0.30290717 18.011304 0.36328532 L 12.568225 4.0643514 C 12.387673 4.1908986 12.342809 4.4406955 12.467456 4.6234904 L 14.072009 6.8553955 C 14.086621 6.8444583 14.10064 6.8331612 14.115417 6.8223226 C 14.132167 6.8100373 14.365381 6.5846239 14.65802 6.3086589 C 14.950659 6.0326937 15.340392 5.6840221 15.824357 5.3262899 C 16.242476 5.0172464 16.617572 4.8331487 16.910079 4.7247762 C 17.028428 4.6809282 17.122796 4.6540251 17.210836 4.6307251 C 17.255404 4.6101271 17.295067 4.5910947 17.376717 4.5547607 C 17.392913 4.5475532 17.579253 4.4578792 17.814417 4.3888794 C 18.04958 4.3198796 18.362394 4.2591824 18.738391 4.2638224 C 19.299727 4.2707454 19.800736 4.485374 20.24786 4.753715 C 20.698842 5.0243732 21.166015 5.4004365 21.44727 5.9629435 C 21.688397 6.4452006 21.819366 6.8409349 21.888586 7.1365153 C 21.915399 7.2510145 21.927084 7.3441185 21.937679 7.4372721 C 22.088745 7.8202901 22.25623 8.2249545 22.428088 8.6402995 L 27.433468 7.2398682 C 27.641266 7.1783732 27.670396 7.0195776 27.495479 6.8874349 L 18.651058 0.37672119 C 18.563129 0.3128546 18.447923 0.2793927 18.332214 0.27698568 z M 10.12393 2.1394043 C 10.079066 2.1413402 10.027087 2.1614689 9.9714844 2.201416 L 1.1332642 8.7183309 C 0.95837206 8.8460641 0.8647605 9.1226178 0.92190755 9.3312134 L 2.7109456 15.727205 C 2.7749946 15.935676 2.9942969 16.056649 3.203422 15.993856 L 6.7251709 14.828035 C 6.5491364 12.48009 6.4000522 10.181805 6.1541463 7.9431844 A 0.50005 0.50005 0 0 1 6.152596 7.9416341 C 6.0940823 7.3985783 6.4958264 6.8987316 7.0388468 6.8398926 L 7.0388468 6.8419596 L 10.099642 6.5055461 L 10.283093 2.3703979 C 10.287459 2.2182779 10.222629 2.1351452 10.12393 2.1394043 z M 18.492928 6.2642171 C 18.349693 6.2674738 18.393949 6.2900581 18.189587 6.3810059 C 18.109176 6.4167887 18.088559 6.4284118 18.039209 6.4512858 A 0.50005 0.50005 0 0 1 17.982365 6.4900431 C 17.91066 6.5187261 17.863965 6.5391323 17.796847 6.5623901 C 17.771627 6.5711301 17.742861 6.5785913 17.714681 6.5861613 C 17.636601 6.6071293 17.650725 6.6002413 17.630965 6.6037313 C 17.615165 6.6065213 17.59482 6.6098027 17.58394 6.6114827 C 17.453939 6.6608699 17.26638 6.7453193 17.011882 6.9334269 C 16.229856 7.511445 15.850618 8.0273531 15.296741 8.4335937 C 15.277122 8.4479834 15.258218 8.4629087 15.238863 8.4775187 L 16.311149 9.9689006 C 16.336876 10.004828 16.369713 10.036506 16.405717 10.065019 C 16.424741 10.050433 16.443792 10.035755 16.463078 10.021611 C 16.747975 9.812654 16.756916 9.7709611 17.027384 9.5234497 C 17.48434 9.1048985 18.223081 9.2258477 18.545638 9.7265381 L 20.488155 9.182902 C 20.325865 8.7886775 20.16597 8.3979808 20.015833 8.0119141 A 0.50005 0.50005 0 0 1 20.011698 8.0000285 C 19.996668 7.9580895 20.026483 7.9175705 20.017383 7.8749715 C 20.009873 7.8555674 19.966841 7.7467524 19.96674 7.7462972 C 19.96664 7.7458022 19.958321 7.6958036 19.956921 7.6796346 C 19.9563 7.6726946 19.957404 7.6760361 19.956921 7.6698161 C 19.953821 7.6521021 19.949218 7.6248895 19.941418 7.5917847 C 19.910522 7.4598499 19.832811 7.2045563 19.658232 6.8553955 C 19.669639 6.8782096 19.440523 6.6038801 19.218982 6.4709229 C 19.110884 6.4060477 18.980678 6.3472529 18.873267 6.3107259 C 18.765854 6.2741939 18.64547 6.2649134 18.71462 6.2657674 C 18.609141 6.2644665 18.540673 6.2631316 18.492928 6.2642171 z M 10.009725 8.5281616 L 8.2341227 8.722465 C 8.4122056 10.53179 8.5417767 12.352896 8.6790568 14.181563 L 9.4076945 13.940234 C 9.610746 13.870883 9.7856441 13.640757 9.7926839 13.421403 L 10.009725 8.5281616 z M 26.290385 9.8831177 C 26.176719 9.8878462 26.065726 9.9418439 25.991178 10.039697 L 23.892082 12.978536 C 24.153886 14.251807 24.21444 15.332452 24.367505 16.058451 C 24.378785 16.096055 24.393684 16.145598 24.414014 16.218648 C 24.457781 16.375875 24.519752 16.610925 24.599532 16.903878 C 24.759797 17.492396 24.982571 18.312251 25.212931 19.155937 C 25.443305 19.999668 25.680692 20.86599 25.871289 21.540804 C 25.916506 21.700897 25.946933 21.80298 25.986011 21.938196 L 28.162105 25.281144 C 28.285013 25.465056 28.441199 25.443304 28.510921 25.235669 L 31.882808 14.692643 C 31.950408 14.483754 31.867407 14.204989 31.699874 14.072009 L 26.544633 9.9642497 C 26.468528 9.9056925 26.378792 9.87944 26.290385 9.8831177 z M 22.220866 15.318962 L 22.163505 15.399577 C 22.037892 15.574698 22.032289 15.866856 22.152653 16.048116 L 22.403284 16.433105 C 22.403292 16.433267 22.402059 16.427717 22.40225 16.427938 C 22.327806 16.067879 22.272512 15.696797 22.220866 15.318962 z M 0.31677653 17.378267 C 0.18076723 17.371954 0.11384164 17.478449 0.16588135 17.651119 L 3.5475871 28.187427 C 3.6142586 28.394641 3.842332 28.570384 4.0571167 28.578617 L 10.606588 28.829765 C 10.825238 28.835905 11.004864 28.658807 11.009664 28.438057 L 11.009147 28.023096 C 10.75717 28.083899 10.542019 28.136072 10.360608 28.179675 C 10.028115 28.372228 9.6060283 28.352733 9.2852214 28.129032 C 9.2095647 28.082659 9.1375601 28.030094 9.075415 27.967285 C 9.048548 27.945596 9.022397 27.922916 8.9979004 27.898556 A 0.50005 0.50005 0 0 1 8.8811117 27.71097 C 8.8982825 27.759573 8.8603605 27.654975 8.8573405 27.646375 C 8.8566305 27.645075 8.8559836 27.644057 8.8552734 27.642757 C 8.8453584 27.625087 8.8310305 27.609857 8.8222005 27.591597 A 0.50005 0.50005 0 0 1 8.7793091 27.462923 C 8.7793091 27.462923 8.7737806 27.427072 8.7694906 27.402462 C 8.6334125 27.087121 8.3656652 26.562824 8.1560913 25.724528 C 7.8362427 24.445134 7.6281379 23.192636 7.4548421 21.994006 C 7.3573059 21.31938 7.272084 20.648383 7.1949097 19.980176 L 0.42116292 17.401005 C 0.38301312 17.386955 0.34816329 17.379724 0.31677653 17.378267 z M 9.3074422 20.784261 C 9.3474022 21.091643 9.3890148 21.399287 9.4335327 21.707202 C 9.6025487 22.876232 9.800733 24.059156 10.095508 25.238253 C 10.195696 25.639003 10.309132 25.857359 10.420036 26.109517 C 10.680865 26.04683 10.796656 26.018884 11.006563 25.968441 L 11.001396 21.822441 C 11.001396 21.60504 10.837438 21.365803 10.636043 21.290173 L 9.3074422 20.784261 z M 18.723405 22.704041 C 18.553478 22.708005 18.372484 22.788852 18.272786 22.916947 L 14.533997 27.671179 C 14.474179 27.78903 14.391926 27.892663 14.293701 27.977104 L 11.471651 31.565515 C 11.337479 31.741194 11.407722 31.884376 11.62513 31.887976 L 22.553662 31.881258 C 22.768861 31.881258 23.004562 31.715177 23.080762 31.512288 L 25.337988 25.272876 C 25.410278 25.061614 25.301536 24.834959 25.094592 24.761279 L 24.491012 24.563359 L 22.130949 25.677502 C 21.637289 25.909801 21.034118 25.694482 20.800798 25.201046 C 20.509677 24.584452 20.237912 23.853343 19.989994 23.088513 L 18.886186 22.726778 C 18.835285 22.709964 18.780047 22.702719 18.723405 22.704041 z " />
    <path
       style="color:#000000;fill:#ff850f;stroke-width:1.00013;stroke-linejoin:round;-inkscape-stroke:none"
       d="m 18.726065,5.2646315 c -0.554577,-0.00684 -0.783054,0.1317838 -0.943359,0.203125 -0.320612,0.1426823 -0.466476,0.2115945 -0.171875,0.09375 -0.03173,0.012692 -0.511073,0.064062 -1.19336,0.5683594 -0.877848,0.6488448 -1.368759,1.2470773 -1.710937,1.4980468 -1.722443,1.2633205 -2.52563,3.1912223 -3.107422,5.2597663 C 11.463032,11.04587 11.299834,9.2819754 11.093253,7.4013502 L 7.1479407,7.834944 c 0.4977322,4.531137 0.6038106,9.221929 1.296875,14.015625 0.171172,1.183941 0.3743329,2.40163 0.6816406,3.63086 0.2004092,0.801638 0.4575987,1.285621 0.6152344,1.671875 0.011949,0.07032 0.023437,0.140625 0.023437,0.140625 0,0 0.024734,-0.0057 0.025391,-0.0059 0.00731,0.01927 0.026746,0.07155 0.033203,0.08984 -0.024572,-0.06965 -0.00217,-0.04093 -0.017578,-0.09375 0.078544,-0.01886 1.8886713,-0.453125 1.8886713,-0.453125 0,0 1.945299,0.394599 1.945313,0.394531 2.7e-5,-1.34e-4 0.01539,-0.08693 0.01758,-0.101562 0.0044,-0.02927 0.0045,-0.03766 0.0059,-0.04883 1.68e-4,-0.0013 -1.64e-4,-0.0026 0,-0.0039 0.0055,-0.04438 -0.0012,-0.06336 0.0039,-0.107422 -1.73e-4,0.02439 2.57e-4,0.06922 0,0.07422 0.0032,-0.02858 0.007,-0.05472 0.0098,-0.0918 0.0039,-0.05207 0.0075,-0.114897 0.0059,-0.222657 -6.5e-5,-0.0044 -0.004,-0.02294 -0.0039,-0.02734 0.173295,-1.884371 -0.01382,-3.535262 0.185547,-4.681641 0.499324,-2.871159 0.842235,-5.486575 1.339844,-7.474609 0.497491,-1.987996 1.150343,-3.200064 1.849491,-3.712852 0.332692,-0.244012 0.413479,-0.351393 0.648437,-0.566407 0.404727,0.989184 0.835886,1.98811 1.109375,2.876954 0.30881,1.003631 0.353501,2.38626 0.708985,4.021484 0.196404,0.903414 1.109076,5.339406 2.183594,7.615235 l 3.58789,-1.69336 C 25.114478,22.704049 23.317935,15.949364 23.39794,16.317366 23.15133,15.182961 23.129695,13.67506 22.604971,11.96971 22.115274,10.378191 21.457774,8.9583882 20.948721,7.6493971 20.971937,7.7090943 20.968543,7.2417729 20.552237,6.4091627 20.249993,5.8046754 19.280642,5.2714711 18.726065,5.2646315 Z M 13.620596,26.368148 c 1.4e-5,-4e-6 0.0039,0 0.0039,0 0,0 0.04492,0.263672 0.04492,0.263671 0,-5e-6 10e-7,0.01283 0,0.01367 0.0025,-0.04622 -0.03907,-0.192408 -0.04883,-0.277343 z"
       id="path8693" />
  </g>
</svg>
